# xmcd CD database file
#
# Track frame offsets:
#	150
#	19030
#	37040
#
# Disc length: 609 seconds
#
# Revision: 0
# Processed by: cddbd v1.5.1PL0 Copyright (c) Steve Scherf et al.
# Submitted via: CDex 1.40Beta9
#
DISCID=1c025f03
DTITLE=トルネード竜巻 - 恋にことば
DYEAR=2004
DGENRE=Pop
TTITLE0=恋にことば
TTITLE1=クロッシングテイルズ
TTITLE2=Balaskarana Island
EXTD=YEAR: 2004 ID3G: 13
EXTT0=
EXTT1=
EXTT2=
PLAYORDER=
